<?xml version="1.0" encoding="utf-8" standalone="no"?>
<!DOCTYPE svg PUBLIC "-//W3C//DTD SVG 1.1//EN"
  "http://www.w3.org/Graphics/SVG/1.1/DTD/svg11.dtd">
<svg xmlns:xlink="http://www.w3.org/1999/xlink" width="614.300852pt" height="392.514375pt" viewBox="0 0 614.300852 392.514375" xmlns="http://www.w3.org/2000/svg" version="1.1">
 <metadata>
  <rdf:RDF xmlns:dc="http://purl.org/dc/elements/1.1/" xmlns:cc="http://creativecommons.org/ns#" xmlns:rdf="http://www.w3.org/1999/02/22-rdf-syntax-ns#">
   <cc:Work>
    <dc:type rdf:resource="http://purl.org/dc/dcmitype/StillImage"/>
    <dc:date>2024-11-27T23:39:52.435629</dc:date>
    <dc:format>image/svg+xml</dc:format>
    <dc:creator>
     <cc:Agent>
      <dc:title>Matplotlib v3.9.2, https://matplotlib.org/</dc:title>
     </cc:Agent>
    </dc:creator>
   </cc:Work>
  </rdf:RDF>
 </metadata>
 <defs>
  <style type="text/css">*{stroke-linejoin: round; stroke-linecap: butt}</style>
 </defs>
 <g id="figure_1">
  <g id="patch_1">
   <path d="M 0 392.514375 
L 614.300852 392.514375 
L 614.300852 0 
L 0 0 
z
" style="fill: #ffffff"/>
  </g>
  <g id="axes_1">
   <g id="patch_2">
    <path d="M 46.965625 354.958125 
L 604.965625 354.958125 
L 604.965625 22.318125 
L 46.965625 22.318125 
z
" style="fill: #ffffff"/>
   </g>
   <g id="PolyCollection_1">
    <path d="M 72.329261 339.838125 
L 72.329261 339.838125 
L 72.837042 339.535422 
L 73.344822 339.23272 
L 73.852603 338.930017 
L 74.360383 338.627314 
L 74.868164 338.324611 
L 75.375944 338.021909 
L 75.883725 337.719206 
L 76.391505 337.416503 
L 76.899286 337.113801 
L 77.407066 336.811098 
L 77.914847 336.508395 
L 78.422627 336.205693 
L 78.930408 335.90299 
L 79.438188 335.600287 
L 79.945969 335.297584 
L 80.453749 334.994882 
L 80.96153 334.692179 
L 81.469311 334.389476 
L 81.977091 334.086774 
L 82.484872 333.784071 
L 82.992652 333.481368 
L 83.500433 333.178666 
L 84.008213 332.875963 
L 84.515994 332.57326 
L 85.023774 332.270557 
L 85.531555 331.967855 
L 86.039335 331.665152 
L 86.547116 331.362449 
L 87.054896 331.059747 
L 87.562677 330.757044 
L 88.070457 330.454341 
L 88.578238 330.151639 
L 89.086018 329.848936 
L 89.593799 329.546233 
L 90.101579 329.24353 
L 90.60936 328.940828 
L 91.11714 328.638125 
L 91.624921 328.335422 
L 92.132701 328.03272 
L 92.640482 327.730017 
L 93.148262 327.427314 
L 93.656043 327.124611 
L 94.163823 326.821909 
L 94.671604 326.519206 
L 95.179384 326.216503 
L 95.687165 325.913801 
L 96.194945 325.611098 
L 96.702726 325.308395 
L 97.210506 325.005693 
L 97.718287 324.70299 
L 98.226067 324.400287 
L 98.733848 324.097584 
L 99.241628 323.794882 
L 99.749409 323.492179 
L 100.257189 323.189476 
L 100.76497 322.886774 
L 101.27275 322.584071 
L 101.780531 322.281368 
L 102.288311 321.978666 
L 102.796092 321.675963 
L 103.303872 321.37326 
L 103.811653 321.070557 
L 104.319433 320.767855 
L 104.827214 320.465152 
L 105.334994 320.162449 
L 105.842775 319.859747 
L 106.350555 319.557044 
L 106.858336 319.254341 
L 107.366116 318.951639 
L 107.873897 318.648936 
L 108.381677 318.346233 
L 108.889458 318.04353 
L 109.397238 317.740828 
L 109.905019 317.438125 
L 110.412799 317.135422 
L 110.92058 316.83272 
L 111.42836 316.530017 
L 111.936141 316.227314 
L 112.443921 315.924611 
L 112.951702 315.621909 
L 113.459482 315.319206 
L 113.967263 315.016503 
L 114.475044 314.713801 
L 114.982824 314.411098 
L 115.490605 314.108395 
L 115.998385 313.805693 
L 116.506166 313.50299 
L 117.013946 313.200287 
L 117.521727 312.897584 
L 118.029507 312.594882 
L 118.537288 312.292179 
L 119.045068 311.989476 
L 119.552849 311.686774 
L 120.060629 311.384071 
L 120.56841 311.081368 
L 121.07619 310.778666 
L 121.583971 310.475963 
L 122.091751 310.17326 
L 122.599532 309.870557 
L 123.107312 309.567855 
L 123.615093 309.265152 
L 124.122873 308.962449 
L 124.630654 308.659747 
L 125.138434 308.357044 
L 125.646215 308.054341 
L 126.153995 307.751639 
L 126.661776 307.448936 
L 127.169556 307.146233 
L 127.677337 306.84353 
L 128.185117 306.540828 
L 128.692898 306.238125 
L 129.200678 305.935422 
L 129.708459 305.63272 
L 130.216239 305.330017 
L 130.72402 305.027314 
L 131.2318 304.724611 
L 131.739581 304.421909 
L 132.247361 304.119206 
L 132.755142 303.816503 
L 133.262922 303.513801 
L 133.770703 303.211098 
L 134.278483 302.908395 
L 134.786264 302.605693 
L 135.294044 302.30299 
L 135.801825 302.000287 
L 136.309605 301.697584 
L 136.817386 301.394882 
L 137.325166 301.092179 
L 137.832947 300.789476 
L 138.340727 300.486774 
L 138.848508 300.184071 
L 139.356288 299.881368 
L 139.864069 299.578666 
L 140.371849 299.275963 
L 140.87963 298.97326 
L 141.38741 298.670557 
L 141.895191 298.367855 
L 142.402971 298.065152 
L 142.910752 297.762449 
L 143.418532 297.459747 
L 143.926313 297.157044 
L 144.434093 296.854341 
L 144.941874 296.551639 
L 145.449654 296.248936 
L 145.957435 295.946233 
L 146.465215 295.64353 
L 146.972996 295.340828 
L 147.480777 295.038125 
L 147.988557 294.735422 
L 148.496338 294.43272 
L 149.004118 294.130017 
L 149.511899 293.827314 
L 150.019679 293.524611 
L 150.52746 293.221909 
L 151.03524 292.919206 
L 151.543021 292.616503 
L 152.050801 292.313801 
L 152.558582 292.011098 
L 153.066362 291.708395 
L 153.574143 291.405693 
L 154.081923 291.10299 
L 154.589704 290.800287 
L 155.097484 290.497584 
L 155.605265 290.194882 
L 156.113045 289.892179 
L 156.620826 289.589476 
L 157.128606 289.286774 
L 157.636387 288.984071 
L 158.144167 288.681368 
L 158.651948 288.378666 
L 159.159728 288.075963 
L 159.667509 287.77326 
L 160.175289 287.470557 
L 160.68307 287.167855 
L 161.19085 286.865152 
L 161.698631 286.562449 
L 162.206411 286.259747 
L 162.714192 285.957044 
L 163.221972 285.654341 
L 163.729753 285.351639 
L 164.237533 285.048936 
L 164.745314 284.746233 
L 165.253094 284.44353 
L 165.760875 284.140828 
L 166.268655 283.838125 
L 166.776436 283.535422 
L 167.284216 283.23272 
L 167.791997 282.930017 
L 168.299777 282.627314 
L 168.807558 282.324611 
L 169.315338 282.021909 
L 169.823119 281.719206 
L 170.330899 281.416503 
L 170.83868 281.113801 
L 171.34646 280.811098 
L 171.854241 280.508395 
L 172.362021 280.205693 
L 172.869802 279.90299 
L 173.377582 279.600287 
L 173.885363 279.297584 
L 174.393143 278.994882 
L 174.900924 278.692179 
L 175.408704 278.389476 
L 175.916485 278.086774 
L 176.424265 277.784071 
L 176.932046 277.481368 
L 177.439826 277.178666 
L 177.947607 276.875963 
L 178.455387 276.57326 
L 178.963168 276.270557 
L 179.470949 275.967855 
L 179.978729 275.665152 
L 180.48651 275.362449 
L 180.99429 275.059747 
L 181.502071 274.757044 
L 182.009851 274.454341 
L 182.517632 274.151639 
L 183.025412 273.848936 
L 183.533193 273.546233 
L 184.040973 273.24353 
L 184.548754 272.940828 
L 185.056534 272.638125 
L 185.564315 272.335422 
L 186.072095 272.03272 
L 186.579876 271.730017 
L 187.087656 271.427314 
L 187.595437 271.124611 
L 188.103217 270.821909 
L 188.610998 270.519206 
L 189.118778 270.216503 
L 189.626559 269.913801 
L 190.134339 269.611098 
L 190.64212 269.308395 
L 191.1499 269.005693 
L 191.657681 268.70299 
L 192.165461 268.400287 
L 192.673242 268.097584 
L 193.181022 267.794882 
L 193.688803 267.492179 
L 194.196583 267.189476 
L 194.704364 266.886774 
L 195.212144 266.584071 
L 195.719925 266.281368 
L 196.227705 265.978666 
L 196.735486 265.675963 
L 197.243266 265.37326 
L 197.751047 265.070557 
L 198.258827 264.767855 
L 198.766608 264.465152 
L 199.274388 264.162449 
L 199.782169 263.859747 
L 200.289949 263.557044 
L 200.79773 263.254341 
L 201.30551 262.951639 
L 201.813291 262.648936 
L 202.321071 262.346233 
L 202.828852 262.04353 
L 203.336632 261.740828 
L 203.844413 261.438125 
L 204.352193 261.135422 
L 204.859974 260.83272 
L 205.367754 260.530017 
L 205.875535 260.227314 
L 206.383315 259.924611 
L 206.891096 259.621909 
L 207.398876 259.319206 
L 207.906657 259.016503 
L 208.414437 258.713801 
L 208.922218 258.411098 
L 209.429998 258.108395 
L 209.937779 257.805693 
L 210.445559 257.50299 
L 210.95334 257.200287 
L 211.46112 256.897584 
L 211.968901 256.594882 
L 212.476682 256.292179 
L 212.984462 255.989476 
L 213.492243 255.686774 
L 214.000023 255.384071 
L 214.507804 255.081368 
L 215.015584 254.778666 
L 215.523365 254.475963 
L 216.031145 254.17326 
L 216.538926 253.870557 
L 217.046706 253.567855 
L 217.554487 253.265152 
L 218.062267 252.962449 
L 218.570048 252.659747 
L 219.077828 252.357044 
L 219.585609 252.054341 
L 220.093389 251.751639 
L 220.60117 251.448936 
L 221.10895 251.146233 
L 221.616731 250.84353 
L 222.124511 250.540828 
L 222.632292 250.238125 
L 223.140072 249.935422 
L 223.647853 249.63272 
L 224.155633 249.330017 
L 224.663414 249.027314 
L 225.171194 248.724611 
L 225.678975 248.421909 
L 226.186755 248.119206 
L 226.694536 247.816503 
L 227.202316 247.513801 
L 227.710097 247.211098 
L 228.217877 246.908395 
L 228.725658 246.605693 
L 229.233438 246.30299 
L 229.741219 246.000287 
L 230.248999 245.697584 
L 230.75678 245.394882 
L 231.26456 245.092179 
L 231.772341 244.789476 
L 232.280121 244.486774 
L 232.787902 244.184071 
L 233.295682 243.881368 
L 233.803463 243.578666 
L 234.311243 243.275963 
L 234.819024 242.97326 
L 235.326804 242.670557 
L 235.834585 242.367855 
L 236.342365 242.065152 
L 236.850146 241.762449 
L 237.357926 241.459747 
L 237.865707 241.157044 
L 238.373487 240.854341 
L 238.881268 240.551639 
L 239.389048 240.248936 
L 239.896829 239.946233 
L 240.404609 239.64353 
L 240.91239 239.340828 
L 241.42017 239.038125 
L 241.927951 238.735422 
L 242.435731 238.43272 
L 242.943512 238.130017 
L 243.451292 237.827314 
L 243.959073 237.524611 
L 244.466854 237.221909 
L 244.974634 236.919206 
L 245.482415 236.616503 
L 245.990195 236.313801 
L 246.497976 236.011098 
L 247.005756 235.708395 
L 247.513537 235.405693 
L 248.021317 235.10299 
L 248.529098 234.800287 
L 249.036878 234.497584 
L 249.544659 234.194882 
L 250.052439 233.892179 
L 250.56022 233.589476 
L 251.068 233.286774 
L 251.575781 232.984071 
L 252.083561 232.681368 
L 252.591342 232.378666 
L 253.099122 232.075963 
L 253.606903 231.77326 
L 254.114683 231.470557 
L 254.622464 231.167855 
L 255.130244 230.865152 
L 255.638025 230.562449 
L 256.145805 230.259747 
L 256.653586 229.957044 
L 257.161366 229.654341 
L 257.669147 229.351639 
L 258.176927 229.048936 
L 258.684708 228.746233 
L 259.192488 228.44353 
L 259.700269 228.140828 
L 260.208049 227.838125 
L 260.71583 227.535422 
L 261.22361 227.23272 
L 261.731391 226.930017 
L 262.239171 226.627314 
L 262.746952 226.324611 
L 263.254732 226.021909 
L 263.762513 225.719206 
L 264.270293 225.416503 
L 264.778074 225.113801 
L 265.285854 224.811098 
L 265.793635 224.508395 
L 266.301415 224.205693 
L 266.809196 223.90299 
L 267.316976 223.600287 
L 267.824757 223.297584 
L 268.332537 222.994882 
L 268.840318 222.692179 
L 269.348098 222.389476 
L 269.855879 222.086774 
L 270.363659 221.784071 
L 270.87144 221.481368 
L 271.37922 221.178666 
L 271.887001 220.875963 
L 272.394781 220.57326 
L 272.902562 220.270557 
L 273.410342 219.967855 
L 273.918123 219.665152 
L 274.425903 219.362449 
L 274.933684 219.059747 
L 275.441464 218.757044 
L 275.949245 218.454341 
L 276.457025 218.151639 
L 276.964806 217.848936 
L 277.472587 217.546233 
L 277.980367 217.24353 
L 278.488148 216.940828 
L 278.995928 216.638125 
L 279.503709 216.335422 
L 280.011489 216.03272 
L 280.51927 215.730017 
L 281.02705 215.427314 
L 281.534831 215.124611 
L 282.042611 214.821909 
L 282.550392 214.519206 
L 283.058172 214.216503 
L 283.565953 213.913801 
L 284.073733 213.611098 
L 284.581514 213.308395 
L 285.089294 213.005693 
L 285.597075 212.70299 
L 286.104855 212.400287 
L 286.612636 212.097584 
L 287.120416 211.794882 
L 287.628197 211.492179 
L 288.135977 211.189476 
L 288.643758 210.886774 
L 289.151538 210.584071 
L 289.659319 210.281368 
L 290.167099 209.978666 
L 290.67488 209.675963 
L 291.18266 209.37326 
L 291.690441 209.070557 
L 292.198221 208.767855 
L 292.706002 208.465152 
L 293.213782 208.162449 
L 293.721563 207.859747 
L 294.229343 207.557044 
L 294.737124 207.254341 
L 295.244904 206.951639 
L 295.752685 206.648936 
L 296.260465 206.346233 
L 296.768246 206.04353 
L 297.276026 205.740828 
L 297.783807 205.438125 
L 298.291587 205.135422 
L 298.799368 204.83272 
L 299.307148 204.530017 
L 299.814929 204.227314 
L 300.322709 203.924611 
L 300.83049 203.621909 
L 301.33827 203.319206 
L 301.846051 203.016503 
L 302.353831 202.713801 
L 302.861612 202.411098 
L 303.369392 202.108395 
L 303.877173 201.805693 
L 304.384953 201.50299 
L 304.892734 201.200287 
L 305.400514 200.897584 
L 305.908295 200.594882 
L 306.416075 200.292179 
L 306.923856 199.989476 
L 307.431636 199.686774 
L 307.939417 199.384071 
L 308.447197 199.081368 
L 308.954978 198.778666 
L 309.462758 198.475963 
L 309.970539 198.17326 
L 310.47832 197.870557 
L 310.9861 197.567855 
L 311.493881 197.265152 
L 312.001661 196.962449 
L 312.509442 196.659747 
L 313.017222 196.357044 
L 313.525003 196.054341 
L 314.032783 195.751639 
L 314.540564 195.448936 
L 315.048344 195.146233 
L 315.556125 194.84353 
L 316.063905 194.540828 
L 316.571686 194.238125 
L 317.079466 193.935422 
L 317.587247 193.63272 
L 318.095027 193.330017 
L 318.602808 193.027314 
L 319.110588 192.724611 
L 319.618369 192.421909 
L 320.126149 192.119206 
L 320.63393 191.816503 
L 321.14171 191.513801 
L 321.649491 191.211098 
L 322.157271 190.908395 
L 322.665052 190.605693 
L 323.172832 190.30299 
L 323.680613 190.000287 
L 324.188393 189.697584 
L 324.696174 189.394882 
L 325.203954 189.092179 
L 325.711735 188.789476 
L 326.219515 188.486774 
L 326.727296 188.184071 
L 327.235076 187.881368 
L 327.742857 187.578666 
L 328.250637 187.275963 
L 328.758418 186.97326 
L 329.266198 186.670557 
L 329.773979 186.367855 
L 330.281759 186.065152 
L 330.78954 185.762449 
L 331.29732 185.459747 
L 331.805101 185.157044 
L 332.312881 184.854341 
L 332.820662 184.551639 
L 333.328442 184.248936 
L 333.836223 183.946233 
L 334.344003 183.64353 
L 334.851784 183.340828 
L 335.359564 183.038125 
L 335.867345 182.735422 
L 336.375125 182.43272 
L 336.882906 182.130017 
L 337.390686 181.827314 
L 337.898467 181.524611 
L 338.406247 181.221909 
L 338.914028 180.919206 
L 339.421808 180.616503 
L 339.929589 180.313801 
L 340.437369 180.011098 
L 340.94515 179.708395 
L 341.45293 179.405693 
L 341.960711 179.10299 
L 342.468492 178.800287 
L 342.976272 178.497584 
L 343.484053 178.194882 
L 343.991833 177.892179 
L 344.499614 177.589476 
L 345.007394 177.286774 
L 345.515175 176.984071 
L 346.022955 176.681368 
L 346.530736 176.378666 
L 347.038516 176.075963 
L 347.546297 175.77326 
L 348.054077 175.470557 
L 348.561858 175.167855 
L 349.069638 174.865152 
L 349.577419 174.562449 
L 350.085199 174.259747 
L 350.59298 173.957044 
L 351.10076 173.654341 
L 351.608541 173.351639 
L 352.116321 173.048936 
L 352.624102 172.746233 
L 353.131882 172.44353 
L 353.639663 172.140828 
L 354.147443 171.838125 
L 354.655224 171.535422 
L 355.163004 171.23272 
L 355.670785 170.930017 
L 356.178565 170.627314 
L 356.686346 170.324611 
L 357.194126 170.021909 
L 357.701907 169.719206 
L 358.209687 169.416503 
L 358.717468 169.113801 
L 359.225248 168.811098 
L 359.733029 168.508395 
L 360.240809 168.205693 
L 360.74859 167.90299 
L 361.25637 167.600287 
L 361.764151 167.297584 
L 362.271931 166.994882 
L 362.779712 166.692179 
L 363.287492 166.389476 
L 363.795273 166.086774 
L 364.303053 165.784071 
L 364.810834 165.481368 
L 365.318614 165.178666 
L 365.826395 164.875963 
L 366.334175 164.57326 
L 366.841956 164.270557 
L 367.349736 163.967855 
L 367.857517 163.665152 
L 368.365297 163.362449 
L 368.873078 163.059747 
L 369.380858 162.757044 
L 369.888639 162.454341 
L 370.396419 162.151639 
L 370.9042 161.848936 
L 371.41198 161.546233 
L 371.919761 161.24353 
L 372.427541 160.940828 
L 372.935322 160.638125 
L 373.443102 160.335422 
L 373.950883 160.03272 
L 374.458663 159.730017 
L 374.966444 159.427314 
L 375.474225 159.124611 
L 375.982005 158.821909 
L 376.489786 158.519206 
L 376.997566 158.216503 
L 377.505347 157.913801 
L 378.013127 157.611098 
L 378.520908 157.308395 
L 379.028688 157.005693 
L 379.536469 156.70299 
L 380.044249 156.400287 
L 380.55203 156.097584 
L 381.05981 155.794882 
L 381.567591 155.492179 
L 382.075371 155.189476 
L 382.583152 154.886774 
L 383.090932 154.584071 
L 383.598713 154.281368 
L 384.106493 153.978666 
L 384.614274 153.675963 
L 385.122054 153.37326 
L 385.629835 153.070557 
L 386.137615 152.767855 
L 386.645396 152.465152 
L 387.153176 152.162449 
L 387.660957 151.859747 
L 388.168737 151.557044 
L 388.676518 151.254341 
L 389.184298 150.951639 
L 389.692079 150.648936 
L 390.199859 150.346233 
L 390.70764 150.04353 
L 391.21542 149.740828 
L 391.723201 149.438125 
L 392.230981 149.135422 
L 392.738762 148.83272 
L 393.246542 148.530017 
L 393.754323 148.227314 
L 394.262103 147.924611 
L 394.769884 147.621909 
L 395.277664 147.319206 
L 395.785445 147.016503 
L 396.293225 146.713801 
L 396.801006 146.411098 
L 397.308786 146.108395 
L 397.816567 145.805693 
L 398.324347 145.50299 
L 398.832128 145.200287 
L 399.339908 144.897584 
L 399.847689 144.594882 
L 400.355469 144.292179 
L 400.86325 143.989476 
L 401.37103 143.686774 
L 401.878811 143.384071 
L 402.386591 143.081368 
L 402.894372 142.778666 
L 403.402152 142.475963 
L 403.909933 142.17326 
L 404.417713 141.870557 
L 404.925494 141.567855 
L 405.433274 141.265152 
L 405.941055 140.962449 
L 406.448835 140.659747 
L 406.956616 140.357044 
L 407.464396 140.054341 
L 407.972177 139.751639 
L 408.479958 139.448936 
L 408.987738 139.146233 
L 409.495519 138.84353 
L 410.003299 138.540828 
L 410.51108 138.238125 
L 411.01886 137.935422 
L 411.526641 137.63272 
L 412.034421 137.330017 
L 412.542202 137.027314 
L 413.049982 136.724611 
L 413.557763 136.421909 
L 414.065543 136.119206 
L 414.573324 135.816503 
L 415.081104 135.513801 
L 415.588885 135.211098 
L 416.096665 134.908395 
L 416.604446 134.605693 
L 417.112226 134.30299 
L 417.620007 134.000287 
L 418.127787 133.697584 
L 418.635568 133.394882 
L 419.143348 133.092179 
L 419.651129 132.789476 
L 420.158909 132.486774 
L 420.66669 132.184071 
L 421.17447 131.881368 
L 421.682251 131.578666 
L 422.190031 131.275963 
L 422.697812 130.97326 
L 423.205592 130.670557 
L 423.713373 130.367855 
L 424.221153 130.065152 
L 424.728934 129.762449 
L 425.236714 129.459747 
L 425.744495 129.157044 
L 426.252275 128.854341 
L 426.760056 128.551639 
L 427.267836 128.248936 
L 427.775617 127.946233 
L 428.283397 127.64353 
L 428.791178 127.340828 
L 429.298958 127.038125 
L 429.806739 126.735422 
L 430.314519 126.43272 
L 430.8223 126.130017 
L 431.33008 125.827314 
L 431.837861 125.524611 
L 432.345641 125.221909 
L 432.853422 124.919206 
L 433.361202 124.616503 
L 433.868983 124.313801 
L 434.376763 124.011098 
L 434.884544 123.708395 
L 435.392324 123.405693 
L 435.900105 123.10299 
L 436.407885 122.800287 
L 436.915666 122.497584 
L 437.423446 122.194882 
L 437.931227 121.892179 
L 438.439007 121.589476 
L 438.946788 121.286774 
L 439.454568 120.984071 
L 439.962349 120.681368 
L 440.47013 120.378666 
L 440.97791 120.075963 
L 441.485691 119.77326 
L 441.993471 119.470557 
L 442.501252 119.167855 
L 443.009032 118.865152 
L 443.516813 118.562449 
L 444.024593 118.259747 
L 444.532374 117.957044 
L 445.040154 117.654341 
L 445.547935 117.351639 
L 446.055715 117.048936 
L 446.563496 116.746233 
L 447.071276 116.44353 
L 447.579057 116.140828 
L 448.086837 115.838125 
L 448.594618 115.535422 
L 449.102398 115.23272 
L 449.610179 114.930017 
L 450.117959 114.627314 
L 450.62574 114.324611 
L 451.13352 114.021909 
L 451.641301 113.719206 
L 452.149081 113.416503 
L 452.656862 113.113801 
L 453.164642 112.811098 
L 453.672423 112.508395 
L 454.180203 112.205693 
L 454.687984 111.90299 
L 455.195764 111.600287 
L 455.703545 111.297584 
L 456.211325 110.994882 
L 456.719106 110.692179 
L 457.226886 110.389476 
L 457.734667 110.086774 
L 458.242447 109.784071 
L 458.750228 109.481368 
L 459.258008 109.178666 
L 459.765789 108.875963 
L 460.273569 108.57326 
L 460.78135 108.270557 
L 461.28913 107.967855 
L 461.796911 107.665152 
L 462.304691 107.362449 
L 462.812472 107.059747 
L 463.320252 106.757044 
L 463.828033 106.454341 
L 464.335813 106.151639 
L 464.843594 105.848936 
L 465.351374 105.546233 
L 465.859155 105.24353 
L 466.366935 104.940828 
L 466.874716 104.638125 
L 467.382496 104.335422 
L 467.890277 104.03272 
L 468.398057 103.730017 
L 468.905838 103.427314 
L 469.413618 103.124611 
L 469.921399 102.821909 
L 470.429179 102.519206 
L 470.93696 102.216503 
L 471.44474 101.913801 
L 471.952521 101.611098 
L 472.460301 101.308395 
L 472.968082 101.005693 
L 473.475863 100.70299 
L 473.983643 100.400287 
L 474.491424 100.097584 
L 474.999204 99.794882 
L 475.506985 99.492179 
L 476.014765 99.189476 
L 476.522546 98.886774 
L 477.030326 98.584071 
L 477.538107 98.281368 
L 478.045887 97.978666 
L 478.553668 97.675963 
L 479.061448 97.37326 
L 479.569229 97.070557 
L 480.077009 96.767855 
L 480.58479 96.465152 
L 481.09257 96.162449 
L 481.600351 95.859747 
L 482.108131 95.557044 
L 482.615912 95.254341 
L 483.123692 94.951639 
L 483.631473 94.648936 
L 484.139253 94.346233 
L 484.647034 94.04353 
L 485.154814 93.740828 
L 485.662595 93.438125 
L 486.170375 93.135422 
L 486.678156 92.83272 
L 487.185936 92.530017 
L 487.693717 92.227314 
L 488.201497 91.924611 
L 488.709278 91.621909 
L 489.217058 91.319206 
L 489.724839 91.016503 
L 490.232619 90.713801 
L 490.7404 90.411098 
L 491.24818 90.108395 
L 491.755961 89.805693 
L 492.263741 89.50299 
L 492.771522 89.200287 
L 493.279302 88.897584 
L 493.787083 88.594882 
L 494.294863 88.292179 
L 494.802644 87.989476 
L 495.310424 87.686774 
L 495.818205 87.384071 
L 496.325985 87.081368 
L 496.833766 86.778666 
L 497.341546 86.475963 
L 497.849327 86.17326 
L 498.357107 85.870557 
L 498.864888 85.567855 
L 499.372668 85.265152 
L 499.880449 84.962449 
L 500.388229 84.659747 
L 500.89601 84.357044 
L 501.40379 84.054341 
L 501.911571 83.751639 
L 502.419351 83.448936 
L 502.927132 83.146233 
L 503.434912 82.84353 
L 503.942693 82.540828 
L 504.450473 82.238125 
L 504.958254 81.935422 
L 505.466035 81.63272 
L 505.973815 81.330017 
L 506.481596 81.027314 
L 506.989376 80.724611 
L 507.497157 80.421909 
L 508.004937 80.119206 
L 508.512718 79.816503 
L 509.020498 79.513801 
L 509.528279 79.211098 
L 510.036059 78.908395 
L 510.54384 78.605693 
L 511.05162 78.30299 
L 511.559401 78.000287 
L 512.067181 77.697584 
L 512.574962 77.394882 
L 513.082742 77.092179 
L 513.590523 76.789476 
L 514.098303 76.486774 
L 514.606084 76.184071 
L 515.113864 75.881368 
L 515.621645 75.578666 
L 516.129425 75.275963 
L 516.637206 74.97326 
L 517.144986 74.670557 
L 517.652767 74.367855 
L 518.160547 74.065152 
L 518.668328 73.762449 
L 519.176108 73.459747 
L 519.683889 73.157044 
L 520.191669 72.854341 
L 520.69945 72.551639 
L 521.20723 72.248936 
L 521.715011 71.946233 
L 522.222791 71.64353 
L 522.730572 71.340828 
L 523.238352 71.038125 
L 523.746133 70.735422 
L 524.253913 70.43272 
L 524.761694 70.130017 
L 525.269474 69.827314 
L 525.777255 69.524611 
L 526.285035 69.221909 
L 526.792816 68.919206 
L 527.300596 68.616503 
L 527.808377 68.313801 
L 528.316157 68.011098 
L 528.823938 67.708395 
L 529.331718 67.405693 
L 529.839499 67.10299 
L 530.347279 66.800287 
L 530.85506 66.497584 
L 531.36284 66.194882 
L 531.870621 65.892179 
L 532.378401 65.589476 
L 532.886182 65.286774 
L 533.393962 64.984071 
L 533.901743 64.681368 
L 534.409523 64.378666 
L 534.917304 64.075963 
L 535.425084 63.77326 
L 535.932865 63.470557 
L 536.440645 63.167855 
L 536.948426 62.865152 
L 537.456206 62.562449 
L 537.963987 62.259747 
L 538.471768 61.957044 
L 538.979548 61.654341 
L 539.487329 61.351639 
L 539.995109 61.048936 
L 540.50289 60.746233 
L 541.01067 60.44353 
L 541.518451 60.140828 
L 542.026231 59.838125 
L 542.534012 59.535422 
L 543.041792 59.23272 
L 543.549573 58.930017 
L 544.057353 58.627314 
L 544.565134 58.324611 
L 545.072914 58.021909 
L 545.580695 57.719206 
L 546.088475 57.416503 
L 546.596256 57.113801 
L 547.104036 56.811098 
L 547.611817 56.508395 
L 548.119597 56.205693 
L 548.627378 55.90299 
L 549.135158 55.600287 
L 549.642939 55.297584 
L 550.150719 54.994882 
L 550.6585 54.692179 
L 551.16628 54.389476 
L 551.674061 54.086774 
L 552.181841 53.784071 
L 552.689622 53.481368 
L 553.197402 53.178666 
L 553.705183 52.875963 
L 554.212963 52.57326 
L 554.720744 52.270557 
L 555.228524 51.967855 
L 555.736305 51.665152 
L 556.244085 51.362449 
L 556.751866 51.059747 
L 557.259646 50.757044 
L 557.767427 50.454341 
L 558.275207 50.151639 
L 558.782988 49.848936 
L 559.290768 49.546233 
L 559.798549 49.24353 
L 560.306329 48.940828 
L 560.81411 48.638125 
L 561.32189 48.335422 
L 561.829671 48.03272 
L 562.337451 47.730017 
L 562.845232 47.427314 
L 563.353012 47.124611 
L 563.860793 46.821909 
L 564.368573 46.519206 
L 564.876354 46.216503 
L 565.384134 45.913801 
L 565.891915 45.611098 
L 566.399695 45.308395 
L 566.907476 45.005693 
L 567.415256 44.70299 
L 567.923037 44.400287 
L 568.430817 44.097584 
L 568.938598 43.794882 
L 569.446378 43.492179 
L 569.954159 43.189476 
L 570.461939 42.886774 
L 570.96972 42.584071 
L 571.477501 42.281368 
L 571.985281 41.978666 
L 572.493062 41.675963 
L 573.000842 41.37326 
L 573.508623 41.070557 
L 574.016403 40.767855 
L 574.524184 40.465152 
L 575.031964 40.162449 
L 575.539745 39.859747 
L 576.047525 39.557044 
L 576.555306 39.254341 
L 577.063086 38.951639 
L 577.570867 38.648936 
L 578.078647 38.346233 
L 578.586428 38.04353 
L 579.094208 37.740828 
L 579.601989 37.438125 
L 579.601989 339.838125 
L 579.601989 339.838125 
L 579.094208 339.838125 
L 578.586428 339.838125 
L 578.078647 339.838125 
L 577.570867 339.838125 
L 577.063086 339.838125 
L 576.555306 339.838125 
L 576.047525 339.838125 
L 575.539745 339.838125 
L 575.031964 339.838125 
L 574.524184 339.838125 
L 574.016403 339.838125 
L 573.508623 339.838125 
L 573.000842 339.838125 
L 572.493062 339.838125 
L 571.985281 339.838125 
L 571.477501 339.838125 
L 570.96972 339.838125 
L 570.461939 339.838125 
L 569.954159 339.838125 
L 569.446378 339.838125 
L 568.938598 339.838125 
L 568.430817 339.838125 
L 567.923037 339.838125 
L 567.415256 339.838125 
L 566.907476 339.838125 
L 566.399695 339.838125 
L 565.891915 339.838125 
L 565.384134 339.838125 
L 564.876354 339.838125 
L 564.368573 339.838125 
L 563.860793 339.838125 
L 563.353012 339.838125 
L 562.845232 339.838125 
L 562.337451 339.838125 
L 561.829671 339.838125 
L 561.32189 339.838125 
L 560.81411 339.838125 
L 560.306329 339.838125 
L 559.798549 339.838125 
L 559.290768 339.838125 
L 558.782988 339.838125 
L 558.275207 339.838125 
L 557.767427 339.838125 
L 557.259646 339.838125 
L 556.751866 339.838125 
L 556.244085 339.838125 
L 555.736305 339.838125 
L 555.228524 339.838125 
L 554.720744 339.838125 
L 554.212963 339.838125 
L 553.705183 339.838125 
L 553.197402 339.838125 
L 552.689622 339.838125 
L 552.181841 339.838125 
L 551.674061 339.838125 
L 551.16628 339.838125 
L 550.6585 339.838125 
L 550.150719 339.838125 
L 549.642939 339.838125 
L 549.135158 339.838125 
L 548.627378 339.838125 
L 548.119597 339.838125 
L 547.611817 339.838125 
L 547.104036 339.838125 
L 546.596256 339.838125 
L 546.088475 339.838125 
L 545.580695 339.838125 
L 545.072914 339.838125 
L 544.565134 339.838125 
L 544.057353 339.838125 
L 543.549573 339.838125 
L 543.041792 339.838125 
L 542.534012 339.838125 
L 542.026231 339.838125 
L 541.518451 339.838125 
L 541.01067 339.838125 
L 540.50289 339.838125 
L 539.995109 339.838125 
L 539.487329 339.838125 
L 538.979548 339.838125 
L 538.471768 339.838125 
L 537.963987 339.838125 
L 537.456206 339.838125 
L 536.948426 339.838125 
L 536.440645 339.838125 
L 535.932865 339.838125 
L 535.425084 339.838125 
L 534.917304 339.838125 
L 534.409523 339.838125 
L 533.901743 339.838125 
L 533.393962 339.838125 
L 532.886182 339.838125 
L 532.378401 339.838125 
L 531.870621 339.838125 
L 531.36284 339.838125 
L 530.85506 339.838125 
L 530.347279 339.838125 
L 529.839499 339.838125 
L 529.331718 339.838125 
L 528.823938 339.838125 
L 528.316157 339.838125 
L 527.808377 339.838125 
L 527.300596 339.838125 
L 526.792816 339.838125 
L 526.285035 339.838125 
L 525.777255 339.838125 
L 525.269474 339.838125 
L 524.761694 339.838125 
L 524.253913 339.838125 
L 523.746133 339.838125 
L 523.238352 339.838125 
L 522.730572 339.838125 
L 522.222791 339.838125 
L 521.715011 339.838125 
L 521.20723 339.838125 
L 520.69945 339.838125 
L 520.191669 339.838125 
L 519.683889 339.838125 
L 519.176108 339.838125 
L 518.668328 339.838125 
L 518.160547 339.838125 
L 517.652767 339.838125 
L 517.144986 339.838125 
L 516.637206 339.838125 
L 516.129425 339.838125 
L 515.621645 339.838125 
L 515.113864 339.838125 
L 514.606084 339.838125 
L 514.098303 339.838125 
L 513.590523 339.838125 
L 513.082742 339.838125 
L 512.574962 339.838125 
L 512.067181 339.838125 
L 511.559401 339.838125 
L 511.05162 339.838125 
L 510.54384 339.838125 
L 510.036059 339.838125 
L 509.528279 339.838125 
L 509.020498 339.838125 
L 508.512718 339.838125 
L 508.004937 339.838125 
L 507.497157 339.838125 
L 506.989376 339.838125 
L 506.481596 339.838125 
L 505.973815 339.838125 
L 505.466035 339.838125 
L 504.958254 339.838125 
L 504.450473 339.838125 
L 503.942693 339.838125 
L 503.434912 339.838125 
L 502.927132 339.838125 
L 502.419351 339.838125 
L 501.911571 339.838125 
L 501.40379 339.838125 
L 500.89601 339.838125 
L 500.388229 339.838125 
L 499.880449 339.838125 
L 499.372668 339.838125 
L 498.864888 339.838125 
L 498.357107 339.838125 
L 497.849327 339.838125 
L 497.341546 339.838125 
L 496.833766 339.838125 
L 496.325985 339.838125 
L 495.818205 339.838125 
L 495.310424 339.838125 
L 494.802644 339.838125 
L 494.294863 339.838125 
L 493.787083 339.838125 
L 493.279302 339.838125 
L 492.771522 339.838125 
L 492.263741 339.838125 
L 491.755961 339.838125 
L 491.24818 339.838125 
L 490.7404 339.838125 
L 490.232619 339.838125 
L 489.724839 339.838125 
L 489.217058 339.838125 
L 488.709278 339.838125 
L 488.201497 339.838125 
L 487.693717 339.838125 
L 487.185936 339.838125 
L 486.678156 339.838125 
L 486.170375 339.838125 
L 485.662595 339.838125 
L 485.154814 339.838125 
L 484.647034 339.838125 
L 484.139253 339.838125 
L 483.631473 339.838125 
L 483.123692 339.838125 
L 482.615912 339.838125 
L 482.108131 339.838125 
L 481.600351 339.838125 
L 481.09257 339.838125 
L 480.58479 339.838125 
L 480.077009 339.838125 
L 479.569229 339.838125 
L 479.061448 339.838125 
L 478.553668 339.838125 
L 478.045887 339.838125 
L 477.538107 339.838125 
L 477.030326 339.838125 
L 476.522546 339.838125 
L 476.014765 339.838125 
L 475.506985 339.838125 
L 474.999204 339.838125 
L 474.491424 339.838125 
L 473.983643 339.838125 
L 473.475863 339.838125 
L 472.968082 339.838125 
L 472.460301 339.838125 
L 471.952521 339.838125 
L 471.44474 339.838125 
L 470.93696 339.838125 
L 470.429179 339.838125 
L 469.921399 339.838125 
L 469.413618 339.838125 
L 468.905838 339.838125 
L 468.398057 339.838125 
L 467.890277 339.838125 
L 467.382496 339.838125 
L 466.874716 339.838125 
L 466.366935 339.838125 
L 465.859155 339.838125 
L 465.351374 339.838125 
L 464.843594 339.838125 
L 464.335813 339.838125 
L 463.828033 339.838125 
L 463.320252 339.838125 
L 462.812472 339.838125 
L 462.304691 339.838125 
L 461.796911 339.838125 
L 461.28913 339.838125 
L 460.78135 339.838125 
L 460.273569 339.838125 
L 459.765789 339.838125 
L 459.258008 339.838125 
L 458.750228 339.838125 
L 458.242447 339.838125 
L 457.734667 339.838125 
L 457.226886 339.838125 
L 456.719106 339.838125 
L 456.211325 339.838125 
L 455.703545 339.838125 
L 455.195764 339.838125 
L 454.687984 339.838125 
L 454.180203 339.838125 
L 453.672423 339.838125 
L 453.164642 339.838125 
L 452.656862 339.838125 
L 452.149081 339.838125 
L 451.641301 339.838125 
L 451.13352 339.838125 
L 450.62574 339.838125 
L 450.117959 339.838125 
L 449.610179 339.838125 
L 449.102398 339.838125 
L 448.594618 339.838125 
L 448.086837 339.838125 
L 447.579057 339.838125 
L 447.071276 339.838125 
L 446.563496 339.838125 
L 446.055715 339.838125 
L 445.547935 339.838125 
L 445.040154 339.838125 
L 444.532374 339.838125 
L 444.024593 339.838125 
L 443.516813 339.838125 
L 443.009032 339.838125 
L 442.501252 339.838125 
L 441.993471 339.838125 
L 441.485691 339.838125 
L 440.97791 339.838125 
L 440.47013 339.838125 
L 439.962349 339.838125 
L 439.454568 339.838125 
L 438.946788 339.838125 
L 438.439007 339.838125 
L 437.931227 339.838125 
L 437.423446 339.838125 
L 436.915666 339.838125 
L 436.407885 339.838125 
L 435.900105 339.838125 
L 435.392324 339.838125 
L 434.884544 339.838125 
L 434.376763 339.838125 
L 433.868983 339.838125 
L 433.361202 339.838125 
L 432.853422 339.838125 
L 432.345641 339.838125 
L 431.837861 339.838125 
L 431.33008 339.838125 
L 430.8223 339.838125 
L 430.314519 339.838125 
L 429.806739 339.838125 
L 429.298958 339.838125 
L 428.791178 339.838125 
L 428.283397 339.838125 
L 427.775617 339.838125 
L 427.267836 339.838125 
L 426.760056 339.838125 
L 426.252275 339.838125 
L 425.744495 339.838125 
L 425.236714 339.838125 
L 424.728934 339.838125 
L 424.221153 339.838125 
L 423.713373 339.838125 
L 423.205592 339.838125 
L 422.697812 339.838125 
L 422.190031 339.838125 
L 421.682251 339.838125 
L 421.17447 339.838125 
L 420.66669 339.838125 
L 420.158909 339.838125 
L 419.651129 339.838125 
L 419.143348 339.838125 
L 418.635568 339.838125 
L 418.127787 339.838125 
L 417.620007 339.838125 
L 417.112226 339.838125 
L 416.604446 339.838125 
L 416.096665 339.838125 
L 415.588885 339.838125 
L 415.081104 339.838125 
L 414.573324 339.838125 
L 414.065543 339.838125 
L 413.557763 339.838125 
L 413.049982 339.838125 
L 412.542202 339.838125 
L 412.034421 339.838125 
L 411.526641 339.838125 
L 411.01886 339.838125 
L 410.51108 339.838125 
L 410.003299 339.838125 
L 409.495519 339.838125 
L 408.987738 339.838125 
L 408.479958 339.838125 
L 407.972177 339.838125 
L 407.464396 339.838125 
L 406.956616 339.838125 
L 406.448835 339.838125 
L 405.941055 339.838125 
L 405.433274 339.838125 
L 404.925494 339.838125 
L 404.417713 339.838125 
L 403.909933 339.838125 
L 403.402152 339.838125 
L 402.894372 339.838125 
L 402.386591 339.838125 
L 401.878811 339.838125 
L 401.37103 339.838125 
L 400.86325 339.838125 
L 400.355469 339.838125 
L 399.847689 339.838125 
L 399.339908 339.838125 
L 398.832128 339.838125 
L 398.324347 339.838125 
L 397.816567 339.838125 
L 397.308786 339.838125 
L 396.801006 339.838125 
L 396.293225 339.838125 
L 395.785445 339.838125 
L 395.277664 339.838125 
L 394.769884 339.838125 
L 394.262103 339.838125 
L 393.754323 339.838125 
L 393.246542 339.838125 
L 392.738762 339.838125 
L 392.230981 339.838125 
L 391.723201 339.838125 
L 391.21542 339.838125 
L 390.70764 339.838125 
L 390.199859 339.838125 
L 389.692079 339.838125 
L 389.184298 339.838125 
L 388.676518 339.838125 
L 388.168737 339.838125 
L 387.660957 339.838125 
L 387.153176 339.838125 
L 386.645396 339.838125 
L 386.137615 339.838125 
L 385.629835 339.838125 
L 385.122054 339.838125 
L 384.614274 339.838125 
L 384.106493 339.838125 
L 383.598713 339.838125 
L 383.090932 339.838125 
L 382.583152 339.838125 
L 382.075371 339.838125 
L 381.567591 339.838125 
L 381.05981 339.838125 
L 380.55203 339.838125 
L 380.044249 339.838125 
L 379.536469 339.838125 
L 379.028688 339.838125 
L 378.520908 339.838125 
L 378.013127 339.838125 
L 377.505347 339.838125 
L 376.997566 339.838125 
L 376.489786 339.838125 
L 375.982005 339.838125 
L 375.474225 339.838125 
L 374.966444 339.838125 
L 374.458663 339.838125 
L 373.950883 339.838125 
L 373.443102 339.838125 
L 372.935322 339.838125 
L 372.427541 339.838125 
L 371.919761 339.838125 
L 371.41198 339.838125 
L 370.9042 339.838125 
L 370.396419 339.838125 
L 369.888639 339.838125 
L 369.380858 339.838125 
L 368.873078 339.838125 
L 368.365297 339.838125 
L 367.857517 339.838125 
L 367.349736 339.838125 
L 366.841956 339.838125 
L 366.334175 339.838125 
L 365.826395 339.838125 
L 365.318614 339.838125 
L 364.810834 339.838125 
L 364.303053 339.838125 
L 363.795273 339.838125 
L 363.287492 339.838125 
L 362.779712 339.838125 
L 362.271931 339.838125 
L 361.764151 339.838125 
L 361.25637 339.838125 
L 360.74859 339.838125 
L 360.240809 339.838125 
L 359.733029 339.838125 
L 359.225248 339.838125 
L 358.717468 339.838125 
L 358.209687 339.838125 
L 357.701907 339.838125 
L 357.194126 339.838125 
L 356.686346 339.838125 
L 356.178565 339.838125 
L 355.670785 339.838125 
L 355.163004 339.838125 
L 354.655224 339.838125 
L 354.147443 339.838125 
L 353.639663 339.838125 
L 353.131882 339.838125 
L 352.624102 339.838125 
L 352.116321 339.838125 
L 351.608541 339.838125 
L 351.10076 339.838125 
L 350.59298 339.838125 
L 350.085199 339.838125 
L 349.577419 339.838125 
L 349.069638 339.838125 
L 348.561858 339.838125 
L 348.054077 339.838125 
L 347.546297 339.838125 
L 347.038516 339.838125 
L 346.530736 339.838125 
L 346.022955 339.838125 
L 345.515175 339.838125 
L 345.007394 339.838125 
L 344.499614 339.838125 
L 343.991833 339.838125 
L 343.484053 339.838125 
L 342.976272 339.838125 
L 342.468492 339.838125 
L 341.960711 339.838125 
L 341.45293 339.838125 
L 340.94515 339.838125 
L 340.437369 339.838125 
L 339.929589 339.838125 
L 339.421808 339.838125 
L 338.914028 339.838125 
L 338.406247 339.838125 
L 337.898467 339.838125 
L 337.390686 339.838125 
L 336.882906 339.838125 
L 336.375125 339.838125 
L 335.867345 339.838125 
L 335.359564 339.838125 
L 334.851784 339.838125 
L 334.344003 339.838125 
L 333.836223 339.838125 
L 333.328442 339.838125 
L 332.820662 339.838125 
L 332.312881 339.838125 
L 331.805101 339.838125 
L 331.29732 339.838125 
L 330.78954 339.838125 
L 330.281759 339.838125 
L 329.773979 339.838125 
L 329.266198 339.838125 
L 328.758418 339.838125 
L 328.250637 339.838125 
L 327.742857 339.838125 
L 327.235076 339.838125 
L 326.727296 339.838125 
L 326.219515 339.838125 
L 325.711735 339.838125 
L 325.203954 339.838125 
L 324.696174 339.838125 
L 324.188393 339.838125 
L 323.680613 339.838125 
L 323.172832 339.838125 
L 322.665052 339.838125 
L 322.157271 339.838125 
L 321.649491 339.838125 
L 321.14171 339.838125 
L 320.63393 339.838125 
L 320.126149 339.838125 
L 319.618369 339.838125 
L 319.110588 339.838125 
L 318.602808 339.838125 
L 318.095027 339.838125 
L 317.587247 339.838125 
L 317.079466 339.838125 
L 316.571686 339.838125 
L 316.063905 339.838125 
L 315.556125 339.838125 
L 315.048344 339.838125 
L 314.540564 339.838125 
L 314.032783 339.838125 
L 313.525003 339.838125 
L 313.017222 339.838125 
L 312.509442 339.838125 
L 312.001661 339.838125 
L 311.493881 339.838125 
L 310.9861 339.838125 
L 310.47832 339.838125 
L 309.970539 339.838125 
L 309.462758 339.838125 
L 308.954978 339.838125 
L 308.447197 339.838125 
L 307.939417 339.838125 
L 307.431636 339.838125 
L 306.923856 339.838125 
L 306.416075 339.838125 
L 305.908295 339.838125 
L 305.400514 339.838125 
L 304.892734 339.838125 
L 304.384953 339.838125 
L 303.877173 339.838125 
L 303.369392 339.838125 
L 302.861612 339.838125 
L 302.353831 339.838125 
L 301.846051 339.838125 
L 301.33827 339.838125 
L 300.83049 339.838125 
L 300.322709 339.838125 
L 299.814929 339.838125 
L 299.307148 339.838125 
L 298.799368 339.838125 
L 298.291587 339.838125 
L 297.783807 339.838125 
L 297.276026 339.838125 
L 296.768246 339.838125 
L 296.260465 339.838125 
L 295.752685 339.838125 
L 295.244904 339.838125 
L 294.737124 339.838125 
L 294.229343 339.838125 
L 293.721563 339.838125 
L 293.213782 339.838125 
L 292.706002 339.838125 
L 292.198221 339.838125 
L 291.690441 339.838125 
L 291.18266 339.838125 
L 290.67488 339.838125 
L 290.167099 339.838125 
L 289.659319 339.838125 
L 289.151538 339.838125 
L 288.643758 339.838125 
L 288.135977 339.838125 
L 287.628197 339.838125 
L 287.120416 339.838125 
L 286.612636 339.838125 
L 286.104855 339.838125 
L 285.597075 339.838125 
L 285.089294 339.838125 
L 284.581514 339.838125 
L 284.073733 339.838125 
L 283.565953 339.838125 
L 283.058172 339.838125 
L 282.550392 339.838125 
L 282.042611 339.838125 
L 281.534831 339.838125 
L 281.02705 339.838125 
L 280.51927 339.838125 
L 280.011489 339.838125 
L 279.503709 339.838125 
L 278.995928 339.838125 
L 278.488148 339.838125 
L 277.980367 339.838125 
L 277.472587 339.838125 
L 276.964806 339.838125 
L 276.457025 339.838125 
L 275.949245 339.838125 
L 275.441464 339.838125 
L 274.933684 339.838125 
L 274.425903 339.838125 
L 273.918123 339.838125 
L 273.410342 339.838125 
L 272.902562 339.838125 
L 272.394781 339.838125 
L 271.887001 339.838125 
L 271.37922 339.838125 
L 270.87144 339.838125 
L 270.363659 339.838125 
L 269.855879 339.838125 
L 269.348098 339.838125 
L 268.840318 339.838125 
L 268.332537 339.838125 
L 267.824757 339.838125 
L 267.316976 339.838125 
L 266.809196 339.838125 
L 266.301415 339.838125 
L 265.793635 339.838125 
L 265.285854 339.838125 
L 264.778074 339.838125 
L 264.270293 339.838125 
L 263.762513 339.838125 
L 263.254732 339.838125 
L 262.746952 339.838125 
L 262.239171 339.838125 
L 261.731391 339.838125 
L 261.22361 339.838125 
L 260.71583 339.838125 
L 260.208049 339.838125 
L 259.700269 339.838125 
L 259.192488 339.838125 
L 258.684708 339.838125 
L 258.176927 339.838125 
L 257.669147 339.838125 
L 257.161366 339.838125 
L 256.653586 339.838125 
L 256.145805 339.838125 
L 255.638025 339.838125 
L 255.130244 339.838125 
L 254.622464 339.838125 
L 254.114683 339.838125 
L 253.606903 339.838125 
L 253.099122 339.838125 
L 252.591342 339.838125 
L 252.083561 339.838125 
L 251.575781 339.838125 
L 251.068 339.838125 
L 250.56022 339.838125 
L 250.052439 339.838125 
L 249.544659 339.838125 
L 249.036878 339.838125 
L 248.529098 339.838125 
L 248.021317 339.838125 
L 247.513537 339.838125 
L 247.005756 339.838125 
L 246.497976 339.838125 
L 245.990195 339.838125 
L 245.482415 339.838125 
L 244.974634 339.838125 
L 244.466854 339.838125 
L 243.959073 339.838125 
L 243.451292 339.838125 
L 242.943512 339.838125 
L 242.435731 339.838125 
L 241.927951 339.838125 
L 241.42017 339.838125 
L 240.91239 339.838125 
L 240.404609 339.838125 
L 239.896829 339.838125 
L 239.389048 339.838125 
L 238.881268 339.838125 
L 238.373487 339.838125 
L 237.865707 339.838125 
L 237.357926 339.838125 
L 236.850146 339.838125 
L 236.342365 339.838125 
L 235.834585 339.838125 
L 235.326804 339.838125 
L 234.819024 339.838125 
L 234.311243 339.838125 
L 233.803463 339.838125 
L 233.295682 339.838125 
L 232.787902 339.838125 
L 232.280121 339.838125 
L 231.772341 339.838125 
L 231.26456 339.838125 
L 230.75678 339.838125 
L 230.248999 339.838125 
L 229.741219 339.838125 
L 229.233438 339.838125 
L 228.725658 339.838125 
L 228.217877 339.838125 
L 227.710097 339.838125 
L 227.202316 339.838125 
L 226.694536 339.838125 
L 226.186755 339.838125 
L 225.678975 339.838125 
L 225.171194 339.838125 
L 224.663414 339.838125 
L 224.155633 339.838125 
L 223.647853 339.838125 
L 223.140072 339.838125 
L 222.632292 339.838125 
L 222.124511 339.838125 
L 221.616731 339.838125 
L 221.10895 339.838125 
L 220.60117 339.838125 
L 220.093389 339.838125 
L 219.585609 339.838125 
L 219.077828 339.838125 
L 218.570048 339.838125 
L 218.062267 339.838125 
L 217.554487 339.838125 
L 217.046706 339.838125 
L 216.538926 339.838125 
L 216.031145 339.838125 
L 215.523365 339.838125 
L 215.015584 339.838125 
L 214.507804 339.838125 
L 214.000023 339.838125 
L 213.492243 339.838125 
L 212.984462 339.838125 
L 212.476682 339.838125 
L 211.968901 339.838125 
L 211.46112 339.838125 
L 210.95334 339.838125 
L 210.445559 339.838125 
L 209.937779 339.838125 
L 209.429998 339.838125 
L 208.922218 339.838125 
L 208.414437 339.838125 
L 207.906657 339.838125 
L 207.398876 339.838125 
L 206.891096 339.838125 
L 206.383315 339.838125 
L 205.875535 339.838125 
L 205.367754 339.838125 
L 204.859974 339.838125 
L 204.352193 339.838125 
L 203.844413 339.838125 
L 203.336632 339.838125 
L 202.828852 339.838125 
L 202.321071 339.838125 
L 201.813291 339.838125 
L 201.30551 339.838125 
L 200.79773 339.838125 
L 200.289949 339.838125 
L 199.782169 339.838125 
L 199.274388 339.838125 
L 198.766608 339.838125 
L 198.258827 339.838125 
L 197.751047 339.838125 
L 197.243266 339.838125 
L 196.735486 339.838125 
L 196.227705 339.838125 
L 195.719925 339.838125 
L 195.212144 339.838125 
L 194.704364 339.838125 
L 194.196583 339.838125 
L 193.688803 339.838125 
L 193.181022 339.838125 
L 192.673242 339.838125 
L 192.165461 339.838125 
L 191.657681 339.838125 
L 191.1499 339.838125 
L 190.64212 339.838125 
L 190.134339 339.838125 
L 189.626559 339.838125 
L 189.118778 339.838125 
L 188.610998 339.838125 
L 188.103217 339.838125 
L 187.595437 339.838125 
L 187.087656 339.838125 
L 186.579876 339.838125 
L 186.072095 339.838125 
L 185.564315 339.838125 
L 185.056534 339.838125 
L 184.548754 339.838125 
L 184.040973 339.838125 
L 183.533193 339.838125 
L 183.025412 339.838125 
L 182.517632 339.838125 
L 182.009851 339.838125 
L 181.502071 339.838125 
L 180.99429 339.838125 
L 180.48651 339.838125 
L 179.978729 339.838125 
L 179.470949 339.838125 
L 178.963168 339.838125 
L 178.455387 339.838125 
L 177.947607 339.838125 
L 177.439826 339.838125 
L 176.932046 339.838125 
L 176.424265 339.838125 
L 175.916485 339.838125 
L 175.408704 339.838125 
L 174.900924 339.838125 
L 174.393143 339.838125 
L 173.885363 339.838125 
L 173.377582 339.838125 
L 172.869802 339.838125 
L 172.362021 339.838125 
L 171.854241 339.838125 
L 171.34646 339.838125 
L 170.83868 339.838125 
L 170.330899 339.838125 
L 169.823119 339.838125 
L 169.315338 339.838125 
L 168.807558 339.838125 
L 168.299777 339.838125 
L 167.791997 339.838125 
L 167.284216 339.838125 
L 166.776436 339.838125 
L 166.268655 339.838125 
L 165.760875 339.838125 
L 165.253094 339.838125 
L 164.745314 339.838125 
L 164.237533 339.838125 
L 163.729753 339.838125 
L 163.221972 339.838125 
L 162.714192 339.838125 
L 162.206411 339.838125 
L 161.698631 339.838125 
L 161.19085 339.838125 
L 160.68307 339.838125 
L 160.175289 339.838125 
L 159.667509 339.838125 
L 159.159728 339.838125 
L 158.651948 339.838125 
L 158.144167 339.838125 
L 157.636387 339.838125 
L 157.128606 339.838125 
L 156.620826 339.838125 
L 156.113045 339.838125 
L 155.605265 339.838125 
L 155.097484 339.838125 
L 154.589704 339.838125 
L 154.081923 339.838125 
L 153.574143 339.838125 
L 153.066362 339.838125 
L 152.558582 339.838125 
L 152.050801 339.838125 
L 151.543021 339.838125 
L 151.03524 339.838125 
L 150.52746 339.838125 
L 150.019679 339.838125 
L 149.511899 339.838125 
L 149.004118 339.838125 
L 148.496338 339.838125 
L 147.988557 339.838125 
L 147.480777 339.838125 
L 146.972996 339.838125 
L 146.465215 339.838125 
L 145.957435 339.838125 
L 145.449654 339.838125 
L 144.941874 339.838125 
L 144.434093 339.838125 
L 143.926313 339.838125 
L 143.418532 339.838125 
L 142.910752 339.838125 
L 142.402971 339.838125 
L 141.895191 339.838125 
L 141.38741 339.838125 
L 140.87963 339.838125 
L 140.371849 339.838125 
L 139.864069 339.838125 
L 139.356288 339.838125 
L 138.848508 339.838125 
L 138.340727 339.838125 
L 137.832947 339.838125 
L 137.325166 339.838125 
L 136.817386 339.838125 
L 136.309605 339.838125 
L 135.801825 339.838125 
L 135.294044 339.838125 
L 134.786264 339.838125 
L 134.278483 339.838125 
L 133.770703 339.838125 
L 133.262922 339.838125 
L 132.755142 339.838125 
L 132.247361 339.838125 
L 131.739581 339.838125 
L 131.2318 339.838125 
L 130.72402 339.838125 
L 130.216239 339.838125 
L 129.708459 339.838125 
L 129.200678 339.838125 
L 128.692898 339.838125 
L 128.185117 339.838125 
L 127.677337 339.838125 
L 127.169556 339.838125 
L 126.661776 339.838125 
L 126.153995 339.838125 
L 125.646215 339.838125 
L 125.138434 339.838125 
L 124.630654 339.838125 
L 124.122873 339.838125 
L 123.615093 339.838125 
L 123.107312 339.838125 
L 122.599532 339.838125 
L 122.091751 339.838125 
L 121.583971 339.838125 
L 121.07619 339.838125 
L 120.56841 339.838125 
L 120.060629 339.838125 
L 119.552849 339.838125 
L 119.045068 339.838125 
L 118.537288 339.838125 
L 118.029507 339.838125 
L 117.521727 339.838125 
L 117.013946 339.838125 
L 116.506166 339.838125 
L 115.998385 339.838125 
L 115.490605 339.838125 
L 114.982824 339.838125 
L 114.475044 339.838125 
L 113.967263 339.838125 
L 113.459482 339.838125 
L 112.951702 339.838125 
L 112.443921 339.838125 
L 111.936141 339.838125 
L 111.42836 339.838125 
L 110.92058 339.838125 
L 110.412799 339.838125 
L 109.905019 339.838125 
L 109.397238 339.838125 
L 108.889458 339.838125 
L 108.381677 339.838125 
L 107.873897 339.838125 
L 107.366116 339.838125 
L 106.858336 339.838125 
L 106.350555 339.838125 
L 105.842775 339.838125 
L 105.334994 339.838125 
L 104.827214 339.838125 
L 104.319433 339.838125 
L 103.811653 339.838125 
L 103.303872 339.838125 
L 102.796092 339.838125 
L 102.288311 339.838125 
L 101.780531 339.838125 
L 101.27275 339.838125 
L 100.76497 339.838125 
L 100.257189 339.838125 
L 99.749409 339.838125 
L 99.241628 339.838125 
L 98.733848 339.838125 
L 98.226067 339.838125 
L 97.718287 339.838125 
L 97.210506 339.838125 
L 96.702726 339.838125 
L 96.194945 339.838125 
L 95.687165 339.838125 
L 95.179384 339.838125 
L 94.671604 339.838125 
L 94.163823 339.838125 
L 93.656043 339.838125 
L 93.148262 339.838125 
L 92.640482 339.838125 
L 92.132701 339.838125 
L 91.624921 339.838125 
L 91.11714 339.838125 
L 90.60936 339.838125 
L 90.101579 339.838125 
L 89.593799 339.838125 
L 89.086018 339.838125 
L 88.578238 339.838125 
L 88.070457 339.838125 
L 87.562677 339.838125 
L 87.054896 339.838125 
L 86.547116 339.838125 
L 86.039335 339.838125 
L 85.531555 339.838125 
L 85.023774 339.838125 
L 84.515994 339.838125 
L 84.008213 339.838125 
L 83.500433 339.838125 
L 82.992652 339.838125 
L 82.484872 339.838125 
L 81.977091 339.838125 
L 81.469311 339.838125 
L 80.96153 339.838125 
L 80.453749 339.838125 
L 79.945969 339.838125 
L 79.438188 339.838125 
L 78.930408 339.838125 
L 78.422627 339.838125 
L 77.914847 339.838125 
L 77.407066 339.838125 
L 76.899286 339.838125 
L 76.391505 339.838125 
L 75.883725 339.838125 
L 75.375944 339.838125 
L 74.868164 339.838125 
L 74.360383 339.838125 
L 73.852603 339.838125 
L 73.344822 339.838125 
L 72.837042 339.838125 
L 72.329261 339.838125 
z
" clip-path="url(#p5563c8ee68)" style="fill: #1f77b4; fill-opacity: 0.2"/>
   </g>
   <g id="matplotlib.axis_1">
    <g id="xtick_1">
     <g id="line2d_1">
      <path d="M 72.329261 354.958125 
L 72.329261 22.318125 
" clip-path="url(#p5563c8ee68)" style="fill: none; stroke: #b0b0b0; stroke-opacity: 0.3; stroke-width: 0.8; stroke-linecap: square"/>
     </g>
     <g id="line2d_2">
      <defs>
       <path id="meb04b9ef7f" d="M 0 0 
L 0 3.5 
" style="stroke: #000000; stroke-width: 0.8"/>
      </defs>
      <g>
       <use xlink:href="#meb04b9ef7f" x="72.329261" y="354.958125" style="stroke: #000000; stroke-width: 0.8"/>
      </g>
     </g>
     <g id="text_1">
      <!-- 0 -->
      <g transform="translate(69.148011 369.556562) scale(0.1 -0.1)">
       <defs>
        <path id="DejaVuSans-30" d="M 2034 4250 
Q 1547 4250 1301 3770 
Q 1056 3291 1056 2328 
Q 1056 1369 1301 889 
Q 1547 409 2034 409 
Q 2525 409 2770 889 
Q 3016 1369 3016 2328 
Q 3016 3291 2770 3770 
Q 2525 4250 2034 4250 
z
M 2034 4750 
Q 2819 4750 3233 4129 
Q 3647 3509 3647 2328 
Q 3647 1150 3233 529 
Q 2819 -91 2034 -91 
Q 1250 -91 836 529 
Q 422 1150 422 2328 
Q 422 3509 836 4129 
Q 1250 4750 2034 4750 
z
" transform="scale(0.015625)"/>
       </defs>
       <use xlink:href="#DejaVuSans-30"/>
      </g>
     </g>
    </g>
    <g id="xtick_2">
     <g id="line2d_3">
      <path d="M 178.01108 354.958125 
L 178.01108 22.318125 
" clip-path="url(#p5563c8ee68)" style="fill: none; stroke: #b0b0b0; stroke-opacity: 0.3; stroke-width: 0.8; stroke-linecap: square"/>
     </g>
     <g id="line2d_4">
      <g>
       <use xlink:href="#meb04b9ef7f" x="178.01108" y="354.958125" style="stroke: #000000; stroke-width: 0.8"/>
      </g>
     </g>
     <g id="text_2">
      <!-- 5 -->
      <g transform="translate(174.82983 369.556562) scale(0.1 -0.1)">
       <defs>
        <path id="DejaVuSans-35" d="M 691 4666 
L 3169 4666 
L 3169 4134 
L 1269 4134 
L 1269 2991 
Q 1406 3038 1543 3061 
Q 1681 3084 1819 3084 
Q 2600 3084 3056 2656 
Q 3513 2228 3513 1497 
Q 3513 744 3044 326 
Q 2575 -91 1722 -91 
Q 1428 -91 1123 -41 
Q 819 9 494 109 
L 494 744 
Q 775 591 1075 516 
Q 1375 441 1709 441 
Q 2250 441 2565 725 
Q 2881 1009 2881 1497 
Q 2881 1984 2565 2268 
Q 2250 2553 1709 2553 
Q 1456 2553 1204 2497 
Q 953 2441 691 2322 
L 691 4666 
z
" transform="scale(0.015625)"/>
       </defs>
       <use xlink:href="#DejaVuSans-35"/>
      </g>
     </g>
    </g>
    <g id="xtick_3">
     <g id="line2d_5">
      <path d="M 283.692898 354.958125 
L 283.692898 22.318125 
" clip-path="url(#p5563c8ee68)" style="fill: none; stroke: #b0b0b0; stroke-opacity: 0.3; stroke-width: 0.8; stroke-linecap: square"/>
     </g>
     <g id="line2d_6">
      <g>
       <use xlink:href="#meb04b9ef7f" x="283.692898" y="354.958125" style="stroke: #000000; stroke-width: 0.8"/>
      </g>
     </g>
     <g id="text_3">
      <!-- 10 -->
      <g transform="translate(277.330398 369.556562) scale(0.1 -0.1)">
       <defs>
        <path id="DejaVuSans-31" d="M 794 531 
L 1825 531 
L 1825 4091 
L 703 3866 
L 703 4441 
L 1819 4666 
L 2450 4666 
L 2450 531 
L 3481 531 
L 3481 0 
L 794 0 
L 794 531 
z
" transform="scale(0.015625)"/>
       </defs>
       <use xlink:href="#DejaVuSans-31"/>
       <use xlink:href="#DejaVuSans-30" x="63.623047"/>
      </g>
     </g>
    </g>
    <g id="xtick_4">
     <g id="line2d_7">
      <path d="M 389.374716 354.958125 
L 389.374716 22.318125 
" clip-path="url(#p5563c8ee68)" style="fill: none; stroke: #b0b0b0; stroke-opacity: 0.3; stroke-width: 0.8; stroke-linecap: square"/>
     </g>
     <g id="line2d_8">
      <g>
       <use xlink:href="#meb04b9ef7f" x="389.374716" y="354.958125" style="stroke: #000000; stroke-width: 0.8"/>
      </g>
     </g>
     <g id="text_4">
      <!-- 15 -->
      <g transform="translate(383.012216 369.556562) scale(0.1 -0.1)">
       <use xlink:href="#DejaVuSans-31"/>
       <use xlink:href="#DejaVuSans-35" x="63.623047"/>
      </g>
     </g>
    </g>
    <g id="xtick_5">
     <g id="line2d_9">
      <path d="M 495.056534 354.958125 
L 495.056534 22.318125 
" clip-path="url(#p5563c8ee68)" style="fill: none; stroke: #b0b0b0; stroke-opacity: 0.3; stroke-width: 0.8; stroke-linecap: square"/>
     </g>
     <g id="line2d_10">
      <g>
       <use xlink:href="#meb04b9ef7f" x="495.056534" y="354.958125" style="stroke: #000000; stroke-width: 0.8"/>
      </g>
     </g>
     <g id="text_5">
      <!-- 20 -->
      <g transform="translate(488.694034 369.556562) scale(0.1 -0.1)">
       <defs>
        <path id="DejaVuSans-32" d="M 1228 531 
L 3431 531 
L 3431 0 
L 469 0 
L 469 531 
Q 828 903 1448 1529 
Q 2069 2156 2228 2338 
Q 2531 2678 2651 2914 
Q 2772 3150 2772 3378 
Q 2772 3750 2511 3984 
Q 2250 4219 1831 4219 
Q 1534 4219 1204 4116 
Q 875 4013 500 3803 
L 500 4441 
Q 881 4594 1212 4672 
Q 1544 4750 1819 4750 
Q 2544 4750 2975 4387 
Q 3406 4025 3406 3419 
Q 3406 3131 3298 2873 
Q 3191 2616 2906 2266 
Q 2828 2175 2409 1742 
Q 1991 1309 1228 531 
z
" transform="scale(0.015625)"/>
       </defs>
       <use xlink:href="#DejaVuSans-32"/>
       <use xlink:href="#DejaVuSans-30" x="63.623047"/>
      </g>
     </g>
    </g>
    <g id="xtick_6">
     <g id="line2d_11">
      <path d="M 600.738352 354.958125 
L 600.738352 22.318125 
" clip-path="url(#p5563c8ee68)" style="fill: none; stroke: #b0b0b0; stroke-opacity: 0.3; stroke-width: 0.8; stroke-linecap: square"/>
     </g>
     <g id="line2d_12">
      <g>
       <use xlink:href="#meb04b9ef7f" x="600.738352" y="354.958125" style="stroke: #000000; stroke-width: 0.8"/>
      </g>
     </g>
     <g id="text_6">
      <!-- 25 -->
      <g transform="translate(594.375852 369.556562) scale(0.1 -0.1)">
       <use xlink:href="#DejaVuSans-32"/>
       <use xlink:href="#DejaVuSans-35" x="63.623047"/>
      </g>
     </g>
    </g>
    <g id="text_7">
     <!-- Time (hours) -->
     <g transform="translate(294.184375 383.234687) scale(0.1 -0.1)">
      <defs>
       <path id="DejaVuSans-54" d="M -19 4666 
L 3928 4666 
L 3928 4134 
L 2272 4134 
L 2272 0 
L 1638 0 
L 1638 4134 
L -19 4134 
L -19 4666 
z
" transform="scale(0.015625)"/>
       <path id="DejaVuSans-69" d="M 603 3500 
L 1178 3500 
L 1178 0 
L 603 0 
L 603 3500 
z
M 603 4863 
L 1178 4863 
L 1178 4134 
L 603 4134 
L 603 4863 
z
" transform="scale(0.015625)"/>
       <path id="DejaVuSans-6d" d="M 3328 2828 
Q 3544 3216 3844 3400 
Q 4144 3584 4550 3584 
Q 5097 3584 5394 3201 
Q 5691 2819 5691 2113 
L 5691 0 
L 5113 0 
L 5113 2094 
Q 5113 2597 4934 2840 
Q 4756 3084 4391 3084 
Q 3944 3084 3684 2787 
Q 3425 2491 3425 1978 
L 3425 0 
L 2847 0 
L 2847 2094 
Q 2847 2600 2669 2842 
Q 2491 3084 2119 3084 
Q 1678 3084 1418 2786 
Q 1159 2488 1159 1978 
L 1159 0 
L 581 0 
L 581 3500 
L 1159 3500 
L 1159 2956 
Q 1356 3278 1631 3431 
Q 1906 3584 2284 3584 
Q 2666 3584 2933 3390 
Q 3200 3197 3328 2828 
z
" transform="scale(0.015625)"/>
       <path id="DejaVuSans-65" d="M 3597 1894 
L 3597 1613 
L 953 1613 
Q 991 1019 1311 708 
Q 1631 397 2203 397 
Q 2534 397 2845 478 
Q 3156 559 3463 722 
L 3463 178 
Q 3153 47 2828 -22 
Q 2503 -91 2169 -91 
Q 1331 -91 842 396 
Q 353 884 353 1716 
Q 353 2575 817 3079 
Q 1281 3584 2069 3584 
Q 2775 3584 3186 3129 
Q 3597 2675 3597 1894 
z
M 3022 2063 
Q 3016 2534 2758 2815 
Q 2500 3097 2075 3097 
Q 1594 3097 1305 2825 
Q 1016 2553 972 2059 
L 3022 2063 
z
" transform="scale(0.015625)"/>
       <path id="DejaVuSans-20" transform="scale(0.015625)"/>
       <path id="DejaVuSans-28" d="M 1984 4856 
Q 1566 4138 1362 3434 
Q 1159 2731 1159 2009 
Q 1159 1288 1364 580 
Q 1569 -128 1984 -844 
L 1484 -844 
Q 1016 -109 783 600 
Q 550 1309 550 2009 
Q 550 2706 781 3412 
Q 1013 4119 1484 4856 
L 1984 4856 
z
" transform="scale(0.015625)"/>
       <path id="DejaVuSans-68" d="M 3513 2113 
L 3513 0 
L 2938 0 
L 2938 2094 
Q 2938 2591 2744 2837 
Q 2550 3084 2163 3084 
Q 1697 3084 1428 2787 
Q 1159 2491 1159 1978 
L 1159 0 
L 581 0 
L 581 4863 
L 1159 4863 
L 1159 2956 
Q 1366 3272 1645 3428 
Q 1925 3584 2291 3584 
Q 2894 3584 3203 3211 
Q 3513 2838 3513 2113 
z
" transform="scale(0.015625)"/>
       <path id="DejaVuSans-6f" d="M 1959 3097 
Q 1497 3097 1228 2736 
Q 959 2375 959 1747 
Q 959 1119 1226 758 
Q 1494 397 1959 397 
Q 2419 397 2687 759 
Q 2956 1122 2956 1747 
Q 2956 2369 2687 2733 
Q 2419 3097 1959 3097 
z
M 1959 3584 
Q 2709 3584 3137 3096 
Q 3566 2609 3566 1747 
Q 3566 888 3137 398 
Q 2709 -91 1959 -91 
Q 1206 -91 779 398 
Q 353 888 353 1747 
Q 353 2609 779 3096 
Q 1206 3584 1959 3584 
z
" transform="scale(0.015625)"/>
       <path id="DejaVuSans-75" d="M 544 1381 
L 544 3500 
L 1119 3500 
L 1119 1403 
Q 1119 906 1312 657 
Q 1506 409 1894 409 
Q 2359 409 2629 706 
Q 2900 1003 2900 1516 
L 2900 3500 
L 3475 3500 
L 3475 0 
L 2900 0 
L 2900 538 
Q 2691 219 2414 64 
Q 2138 -91 1772 -91 
Q 1169 -91 856 284 
Q 544 659 544 1381 
z
M 1991 3584 
L 1991 3584 
z
" transform="scale(0.015625)"/>
       <path id="DejaVuSans-72" d="M 2631 2963 
Q 2534 3019 2420 3045 
Q 2306 3072 2169 3072 
Q 1681 3072 1420 2755 
Q 1159 2438 1159 1844 
L 1159 0 
L 581 0 
L 581 3500 
L 1159 3500 
L 1159 2956 
Q 1341 3275 1631 3429 
Q 1922 3584 2338 3584 
Q 2397 3584 2469 3576 
Q 2541 3569 2628 3553 
L 2631 2963 
z
" transform="scale(0.015625)"/>
       <path id="DejaVuSans-73" d="M 2834 3397 
L 2834 2853 
Q 2591 2978 2328 3040 
Q 2066 3103 1784 3103 
Q 1356 3103 1142 2972 
Q 928 2841 928 2578 
Q 928 2378 1081 2264 
Q 1234 2150 1697 2047 
L 1894 2003 
Q 2506 1872 2764 1633 
Q 3022 1394 3022 966 
Q 3022 478 2636 193 
Q 2250 -91 1575 -91 
Q 1294 -91 989 -36 
Q 684 19 347 128 
L 347 722 
Q 666 556 975 473 
Q 1284 391 1588 391 
Q 1994 391 2212 530 
Q 2431 669 2431 922 
Q 2431 1156 2273 1281 
Q 2116 1406 1581 1522 
L 1381 1569 
Q 847 1681 609 1914 
Q 372 2147 372 2553 
Q 372 3047 722 3315 
Q 1072 3584 1716 3584 
Q 2034 3584 2315 3537 
Q 2597 3491 2834 3397 
z
" transform="scale(0.015625)"/>
       <path id="DejaVuSans-29" d="M 513 4856 
L 1013 4856 
Q 1481 4119 1714 3412 
Q 1947 2706 1947 2009 
Q 1947 1309 1714 600 
Q 1481 -109 1013 -844 
L 513 -844 
Q 928 -128 1133 580 
Q 1338 1288 1338 2009 
Q 1338 2731 1133 3434 
Q 928 4138 513 4856 
z
" transform="scale(0.015625)"/>
      </defs>
      <use xlink:href="#DejaVuSans-54"/>
      <use xlink:href="#DejaVuSans-69" x="57.958984"/>
      <use xlink:href="#DejaVuSans-6d" x="85.742188"/>
      <use xlink:href="#DejaVuSans-65" x="183.154297"/>
      <use xlink:href="#DejaVuSans-20" x="244.677734"/>
      <use xlink:href="#DejaVuSans-28" x="276.464844"/>
      <use xlink:href="#DejaVuSans-68" x="315.478516"/>
      <use xlink:href="#DejaVuSans-6f" x="378.857422"/>
      <use xlink:href="#DejaVuSans-75" x="440.039062"/>
      <use xlink:href="#DejaVuSans-72" x="503.417969"/>
      <use xlink:href="#DejaVuSans-73" x="544.53125"/>
      <use xlink:href="#DejaVuSans-29" x="596.630859"/>
     </g>
    </g>
   </g>
   <g id="matplotlib.axis_2">
    <g id="ytick_1">
     <g id="line2d_13">
      <path d="M 46.965625 339.838125 
L 604.965625 339.838125 
" clip-path="url(#p5563c8ee68)" style="fill: none; stroke: #b0b0b0; stroke-opacity: 0.3; stroke-width: 0.8; stroke-linecap: square"/>
     </g>
     <g id="line2d_14">
      <defs>
       <path id="m0210b57f0b" d="M 0 0 
L -3.5 0 
" style="stroke: #000000; stroke-width: 0.8"/>
      </defs>
      <g>
       <use xlink:href="#m0210b57f0b" x="46.965625" y="339.838125" style="stroke: #000000; stroke-width: 0.8"/>
      </g>
     </g>
     <g id="text_8">
      <!-- 0 -->
      <g transform="translate(33.603125 343.637344) scale(0.1 -0.1)">
       <use xlink:href="#DejaVuSans-30"/>
      </g>
     </g>
    </g>
    <g id="ytick_2">
     <g id="line2d_15">
      <path d="M 46.965625 284.864303 
L 604.965625 284.864303 
" clip-path="url(#p5563c8ee68)" style="fill: none; stroke: #b0b0b0; stroke-opacity: 0.3; stroke-width: 0.8; stroke-linecap: square"/>
     </g>
     <g id="line2d_16">
      <g>
       <use xlink:href="#m0210b57f0b" x="46.965625" y="284.864303" style="stroke: #000000; stroke-width: 0.8"/>
      </g>
     </g>
     <g id="text_9">
      <!-- 50 -->
      <g transform="translate(27.240625 288.663522) scale(0.1 -0.1)">
       <use xlink:href="#DejaVuSans-35"/>
       <use xlink:href="#DejaVuSans-30" x="63.623047"/>
      </g>
     </g>
    </g>
    <g id="ytick_3">
     <g id="line2d_17">
      <path d="M 46.965625 229.890481 
L 604.965625 229.890481 
" clip-path="url(#p5563c8ee68)" style="fill: none; stroke: #b0b0b0; stroke-opacity: 0.3; stroke-width: 0.8; stroke-linecap: square"/>
     </g>
     <g id="line2d_18">
      <g>
       <use xlink:href="#m0210b57f0b" x="46.965625" y="229.890481" style="stroke: #000000; stroke-width: 0.8"/>
      </g>
     </g>
     <g id="text_10">
      <!-- 100 -->
      <g transform="translate(20.878125 233.6897) scale(0.1 -0.1)">
       <use xlink:href="#DejaVuSans-31"/>
       <use xlink:href="#DejaVuSans-30" x="63.623047"/>
       <use xlink:href="#DejaVuSans-30" x="127.246094"/>
      </g>
     </g>
    </g>
    <g id="ytick_4">
     <g id="line2d_19">
      <path d="M 46.965625 174.916659 
L 604.965625 174.916659 
" clip-path="url(#p5563c8ee68)" style="fill: none; stroke: #b0b0b0; stroke-opacity: 0.3; stroke-width: 0.8; stroke-linecap: square"/>
     </g>
     <g id="line2d_20">
      <g>
       <use xlink:href="#m0210b57f0b" x="46.965625" y="174.916659" style="stroke: #000000; stroke-width: 0.8"/>
      </g>
     </g>
     <g id="text_11">
      <!-- 150 -->
      <g transform="translate(20.878125 178.715878) scale(0.1 -0.1)">
       <use xlink:href="#DejaVuSans-31"/>
       <use xlink:href="#DejaVuSans-35" x="63.623047"/>
       <use xlink:href="#DejaVuSans-30" x="127.246094"/>
      </g>
     </g>
    </g>
    <g id="ytick_5">
     <g id="line2d_21">
      <path d="M 46.965625 119.942837 
L 604.965625 119.942837 
" clip-path="url(#p5563c8ee68)" style="fill: none; stroke: #b0b0b0; stroke-opacity: 0.3; stroke-width: 0.8; stroke-linecap: square"/>
     </g>
     <g id="line2d_22">
      <g>
       <use xlink:href="#m0210b57f0b" x="46.965625" y="119.942837" style="stroke: #000000; stroke-width: 0.8"/>
      </g>
     </g>
     <g id="text_12">
      <!-- 200 -->
      <g transform="translate(20.878125 123.742056) scale(0.1 -0.1)">
       <use xlink:href="#DejaVuSans-32"/>
       <use xlink:href="#DejaVuSans-30" x="63.623047"/>
       <use xlink:href="#DejaVuSans-30" x="127.246094"/>
      </g>
     </g>
    </g>
    <g id="ytick_6">
     <g id="line2d_23">
      <path d="M 46.965625 64.969015 
L 604.965625 64.969015 
" clip-path="url(#p5563c8ee68)" style="fill: none; stroke: #b0b0b0; stroke-opacity: 0.3; stroke-width: 0.8; stroke-linecap: square"/>
     </g>
     <g id="line2d_24">
      <g>
       <use xlink:href="#m0210b57f0b" x="46.965625" y="64.969015" style="stroke: #000000; stroke-width: 0.8"/>
      </g>
     </g>
     <g id="text_13">
      <!-- 250 -->
      <g transform="translate(20.878125 68.768234) scale(0.1 -0.1)">
       <use xlink:href="#DejaVuSans-32"/>
       <use xlink:href="#DejaVuSans-35" x="63.623047"/>
       <use xlink:href="#DejaVuSans-30" x="127.246094"/>
      </g>
     </g>
    </g>
    <g id="text_14">
     <!-- Cumulative Transactions Allowed -->
     <g transform="translate(14.798438 271.156094) rotate(-90) scale(0.1 -0.1)">
      <defs>
       <path id="DejaVuSans-43" d="M 4122 4306 
L 4122 3641 
Q 3803 3938 3442 4084 
Q 3081 4231 2675 4231 
Q 1875 4231 1450 3742 
Q 1025 3253 1025 2328 
Q 1025 1406 1450 917 
Q 1875 428 2675 428 
Q 3081 428 3442 575 
Q 3803 722 4122 1019 
L 4122 359 
Q 3791 134 3420 21 
Q 3050 -91 2638 -91 
Q 1578 -91 968 557 
Q 359 1206 359 2328 
Q 359 3453 968 4101 
Q 1578 4750 2638 4750 
Q 3056 4750 3426 4639 
Q 3797 4528 4122 4306 
z
" transform="scale(0.015625)"/>
       <path id="DejaVuSans-6c" d="M 603 4863 
L 1178 4863 
L 1178 0 
L 603 0 
L 603 4863 
z
" transform="scale(0.015625)"/>
       <path id="DejaVuSans-61" d="M 2194 1759 
Q 1497 1759 1228 1600 
Q 959 1441 959 1056 
Q 959 750 1161 570 
Q 1363 391 1709 391 
Q 2188 391 2477 730 
Q 2766 1069 2766 1631 
L 2766 1759 
L 2194 1759 
z
M 3341 1997 
L 3341 0 
L 2766 0 
L 2766 531 
Q 2569 213 2275 61 
Q 1981 -91 1556 -91 
Q 1019 -91 701 211 
Q 384 513 384 1019 
Q 384 1609 779 1909 
Q 1175 2209 1959 2209 
L 2766 2209 
L 2766 2266 
Q 2766 2663 2505 2880 
Q 2244 3097 1772 3097 
Q 1472 3097 1187 3025 
Q 903 2953 641 2809 
L 641 3341 
Q 956 3463 1253 3523 
Q 1550 3584 1831 3584 
Q 2591 3584 2966 3190 
Q 3341 2797 3341 1997 
z
" transform="scale(0.015625)"/>
       <path id="DejaVuSans-74" d="M 1172 4494 
L 1172 3500 
L 2356 3500 
L 2356 3053 
L 1172 3053 
L 1172 1153 
Q 1172 725 1289 603 
Q 1406 481 1766 481 
L 2356 481 
L 2356 0 
L 1766 0 
Q 1100 0 847 248 
Q 594 497 594 1153 
L 594 3053 
L 172 3053 
L 172 3500 
L 594 3500 
L 594 4494 
L 1172 4494 
z
" transform="scale(0.015625)"/>
       <path id="DejaVuSans-76" d="M 191 3500 
L 800 3500 
L 1894 563 
L 2988 3500 
L 3597 3500 
L 2284 0 
L 1503 0 
L 191 3500 
z
" transform="scale(0.015625)"/>
       <path id="DejaVuSans-6e" d="M 3513 2113 
L 3513 0 
L 2938 0 
L 2938 2094 
Q 2938 2591 2744 2837 
Q 2550 3084 2163 3084 
Q 1697 3084 1428 2787 
Q 1159 2491 1159 1978 
L 1159 0 
L 581 0 
L 581 3500 
L 1159 3500 
L 1159 2956 
Q 1366 3272 1645 3428 
Q 1925 3584 2291 3584 
Q 2894 3584 3203 3211 
Q 3513 2838 3513 2113 
z
" transform="scale(0.015625)"/>
       <path id="DejaVuSans-63" d="M 3122 3366 
L 3122 2828 
Q 2878 2963 2633 3030 
Q 2388 3097 2138 3097 
Q 1578 3097 1268 2742 
Q 959 2388 959 1747 
Q 959 1106 1268 751 
Q 1578 397 2138 397 
Q 2388 397 2633 464 
Q 2878 531 3122 666 
L 3122 134 
Q 2881 22 2623 -34 
Q 2366 -91 2075 -91 
Q 1284 -91 818 406 
Q 353 903 353 1747 
Q 353 2603 823 3093 
Q 1294 3584 2113 3584 
Q 2378 3584 2631 3529 
Q 2884 3475 3122 3366 
z
" transform="scale(0.015625)"/>
       <path id="DejaVuSans-41" d="M 2188 4044 
L 1331 1722 
L 3047 1722 
L 2188 4044 
z
M 1831 4666 
L 2547 4666 
L 4325 0 
L 3669 0 
L 3244 1197 
L 1141 1197 
L 716 0 
L 50 0 
L 1831 4666 
z
" transform="scale(0.015625)"/>
       <path id="DejaVuSans-77" d="M 269 3500 
L 844 3500 
L 1563 769 
L 2278 3500 
L 2956 3500 
L 3675 769 
L 4391 3500 
L 4966 3500 
L 4050 0 
L 3372 0 
L 2619 2869 
L 1863 0 
L 1184 0 
L 269 3500 
z
" transform="scale(0.015625)"/>
       <path id="DejaVuSans-64" d="M 2906 2969 
L 2906 4863 
L 3481 4863 
L 3481 0 
L 2906 0 
L 2906 525 
Q 2725 213 2448 61 
Q 2172 -91 1784 -91 
Q 1150 -91 751 415 
Q 353 922 353 1747 
Q 353 2572 751 3078 
Q 1150 3584 1784 3584 
Q 2172 3584 2448 3432 
Q 2725 3281 2906 2969 
z
M 947 1747 
Q 947 1113 1208 752 
Q 1469 391 1925 391 
Q 2381 391 2643 752 
Q 2906 1113 2906 1747 
Q 2906 2381 2643 2742 
Q 2381 3103 1925 3103 
Q 1469 3103 1208 2742 
Q 947 2381 947 1747 
z
" transform="scale(0.015625)"/>
      </defs>
      <use xlink:href="#DejaVuSans-43"/>
      <use xlink:href="#DejaVuSans-75" x="69.824219"/>
      <use xlink:href="#DejaVuSans-6d" x="133.203125"/>
      <use xlink:href="#DejaVuSans-75" x="230.615234"/>
      <use xlink:href="#DejaVuSans-6c" x="293.994141"/>
      <use xlink:href="#DejaVuSans-61" x="321.777344"/>
      <use xlink:href="#DejaVuSans-74" x="383.056641"/>
      <use xlink:href="#DejaVuSans-69" x="422.265625"/>
      <use xlink:href="#DejaVuSans-76" x="450.048828"/>
      <use xlink:href="#DejaVuSans-65" x="509.228516"/>
      <use xlink:href="#DejaVuSans-20" x="570.751953"/>
      <use xlink:href="#DejaVuSans-54" x="602.539062"/>
      <use xlink:href="#DejaVuSans-72" x="648.873047"/>
      <use xlink:href="#DejaVuSans-61" x="689.986328"/>
      <use xlink:href="#DejaVuSans-6e" x="751.265625"/>
      <use xlink:href="#DejaVuSans-73" x="814.644531"/>
      <use xlink:href="#DejaVuSans-61" x="866.744141"/>
      <use xlink:href="#DejaVuSans-63" x="928.023438"/>
      <use xlink:href="#DejaVuSans-74" x="983.003906"/>
      <use xlink:href="#DejaVuSans-69" x="1022.212891"/>
      <use xlink:href="#DejaVuSans-6f" x="1049.996094"/>
      <use xlink:href="#DejaVuSans-6e" x="1111.177734"/>
      <use xlink:href="#DejaVuSans-73" x="1174.556641"/>
      <use xlink:href="#DejaVuSans-20" x="1226.65625"/>
      <use xlink:href="#DejaVuSans-41" x="1258.443359"/>
      <use xlink:href="#DejaVuSans-6c" x="1326.851562"/>
      <use xlink:href="#DejaVuSans-6c" x="1354.634766"/>
      <use xlink:href="#DejaVuSans-6f" x="1382.417969"/>
      <use xlink:href="#DejaVuSans-77" x="1443.599609"/>
      <use xlink:href="#DejaVuSans-65" x="1525.386719"/>
      <use xlink:href="#DejaVuSans-64" x="1586.910156"/>
     </g>
    </g>
   </g>
   <g id="line2d_25">
    <path d="M 72.329261 339.838125 
L 579.601989 37.438125 
L 579.601989 37.438125 
" clip-path="url(#p5563c8ee68)" style="fill: none; stroke: #0000ff; stroke-width: 2; stroke-linecap: square"/>
   </g>
   <g id="patch_3">
    <path d="M 46.965625 354.958125 
L 46.965625 22.318125 
" style="fill: none; stroke: #000000; stroke-width: 0.8; stroke-linejoin: miter; stroke-linecap: square"/>
   </g>
   <g id="patch_4">
    <path d="M 604.965625 354.958125 
L 604.965625 22.318125 
" style="fill: none; stroke: #000000; stroke-width: 0.8; stroke-linejoin: miter; stroke-linecap: square"/>
   </g>
   <g id="patch_5">
    <path d="M 46.965625 354.958125 
L 604.965625 354.958125 
" style="fill: none; stroke: #000000; stroke-width: 0.8; stroke-linejoin: miter; stroke-linecap: square"/>
   </g>
   <g id="patch_6">
    <path d="M 46.965625 22.318125 
L 604.965625 22.318125 
" style="fill: none; stroke: #000000; stroke-width: 0.8; stroke-linejoin: miter; stroke-linecap: square"/>
   </g>
   <g id="text_15">
    <!-- MemePi Maximum Transaction Rate -->
    <g transform="translate(219.052188 16.318125) scale(0.12 -0.12)">
     <defs>
      <path id="DejaVuSans-4d" d="M 628 4666 
L 1569 4666 
L 2759 1491 
L 3956 4666 
L 4897 4666 
L 4897 0 
L 4281 0 
L 4281 4097 
L 3078 897 
L 2444 897 
L 1241 4097 
L 1241 0 
L 628 0 
L 628 4666 
z
" transform="scale(0.015625)"/>
      <path id="DejaVuSans-50" d="M 1259 4147 
L 1259 2394 
L 2053 2394 
Q 2494 2394 2734 2622 
Q 2975 2850 2975 3272 
Q 2975 3691 2734 3919 
Q 2494 4147 2053 4147 
L 1259 4147 
z
M 628 4666 
L 2053 4666 
Q 2838 4666 3239 4311 
Q 3641 3956 3641 3272 
Q 3641 2581 3239 2228 
Q 2838 1875 2053 1875 
L 1259 1875 
L 1259 0 
L 628 0 
L 628 4666 
z
" transform="scale(0.015625)"/>
      <path id="DejaVuSans-78" d="M 3513 3500 
L 2247 1797 
L 3578 0 
L 2900 0 
L 1881 1375 
L 863 0 
L 184 0 
L 1544 1831 
L 300 3500 
L 978 3500 
L 1906 2253 
L 2834 3500 
L 3513 3500 
z
" transform="scale(0.015625)"/>
      <path id="DejaVuSans-52" d="M 2841 2188 
Q 3044 2119 3236 1894 
Q 3428 1669 3622 1275 
L 4263 0 
L 3584 0 
L 2988 1197 
Q 2756 1666 2539 1819 
Q 2322 1972 1947 1972 
L 1259 1972 
L 1259 0 
L 628 0 
L 628 4666 
L 2053 4666 
Q 2853 4666 3247 4331 
Q 3641 3997 3641 3322 
Q 3641 2881 3436 2590 
Q 3231 2300 2841 2188 
z
M 1259 4147 
L 1259 2491 
L 2053 2491 
Q 2509 2491 2742 2702 
Q 2975 2913 2975 3322 
Q 2975 3731 2742 3939 
Q 2509 4147 2053 4147 
L 1259 4147 
z
" transform="scale(0.015625)"/>
     </defs>
     <use xlink:href="#DejaVuSans-4d"/>
     <use xlink:href="#DejaVuSans-65" x="86.279297"/>
     <use xlink:href="#DejaVuSans-6d" x="147.802734"/>
     <use xlink:href="#DejaVuSans-65" x="245.214844"/>
     <use xlink:href="#DejaVuSans-50" x="306.738281"/>
     <use xlink:href="#DejaVuSans-69" x="364.791016"/>
     <use xlink:href="#DejaVuSans-20" x="392.574219"/>
     <use xlink:href="#DejaVuSans-4d" x="424.361328"/>
     <use xlink:href="#DejaVuSans-61" x="510.640625"/>
     <use xlink:href="#DejaVuSans-78" x="571.919922"/>
     <use xlink:href="#DejaVuSans-69" x="631.099609"/>
     <use xlink:href="#DejaVuSans-6d" x="658.882812"/>
     <use xlink:href="#DejaVuSans-75" x="756.294922"/>
     <use xlink:href="#DejaVuSans-6d" x="819.673828"/>
     <use xlink:href="#DejaVuSans-20" x="917.085938"/>
     <use xlink:href="#DejaVuSans-54" x="948.873047"/>
     <use xlink:href="#DejaVuSans-72" x="995.207031"/>
     <use xlink:href="#DejaVuSans-61" x="1036.320312"/>
     <use xlink:href="#DejaVuSans-6e" x="1097.599609"/>
     <use xlink:href="#DejaVuSans-73" x="1160.978516"/>
     <use xlink:href="#DejaVuSans-61" x="1213.078125"/>
     <use xlink:href="#DejaVuSans-63" x="1274.357422"/>
     <use xlink:href="#DejaVuSans-74" x="1329.337891"/>
     <use xlink:href="#DejaVuSans-69" x="1368.546875"/>
     <use xlink:href="#DejaVuSans-6f" x="1396.330078"/>
     <use xlink:href="#DejaVuSans-6e" x="1457.511719"/>
     <use xlink:href="#DejaVuSans-20" x="1520.890625"/>
     <use xlink:href="#DejaVuSans-52" x="1552.677734"/>
     <use xlink:href="#DejaVuSans-61" x="1619.910156"/>
     <use xlink:href="#DejaVuSans-74" x="1681.189453"/>
     <use xlink:href="#DejaVuSans-65" x="1720.398438"/>
    </g>
   </g>
  </g>
 </g>
 <defs>
  <clipPath id="p5563c8ee68">
   <rect x="46.965625" y="22.318125" width="558" height="332.64"/>
  </clipPath>
 </defs>
</svg>
